# xmcd CD database file
# Copyright (C) 1995-1998 Ti Kan
#
# Track frame offsets:
#	150
#	15067
#	29100
#	44072
#	57149
#	72160
#	87043
#	101285
#	116271
#	127901
#	143537
#	165833
#	182055
#	192892
#	208185
#	221244
#	232772
#	249038
#	262695
#	276848
#	290338
#	305317
#
# Disc length: 4390 seconds
#
# Revision: 1
# Processed by: cddbd v1.4PL0 Copyright (c) Steve Scherf et al.
# Submitted via: CDex 1.30
#
DISCID=1d112416
DTITLE=Tommy Dorsey - Stop, Look and Listen
DYEAR=2003
DGENRE=Blues
TTITLE0=swanee river
TTITLE1=boogie woogie
TTITLE2=davenport blues
TTITLE3=he s a gypsy from poughkeepsie
TTITLE4=symphony in riffs
TTITLE5=weary blues
TTITLE6=song of india
TTITLE7=beale street blues
TTITLE8=night and day
TTITLE9=tin roof blues
TTITLE10=the lonesome road
TTITLE11=easy does it
TTITLE12=the sheik of araby
TTITLE13=twilight in turkey
TTITLE14=royal garden blues
TTITLE15=maple leaf rag
TTITLE16=liebestraum
TTITLE17=mandy, make up your mind
TTITLE18=chinatown, my chinatown
TTITLE19=after you re gone
TTITLE20=marie
TTITLE21=stop look and listen
EXTD=\nYEAR: 2003  ID3G:   0
EXTT0=
EXTT1=
EXTT2=
EXTT3=
EXTT4=
EXTT5=
EXTT6=
EXTT7=
EXTT8=
EXTT9=
EXTT10=
EXTT11=
EXTT12=
EXTT13=
EXTT14=
EXTT15=
EXTT16=
EXTT17=
EXTT18=
EXTT19=
EXTT20=
EXTT21=
PLAYORDER=
